# xmcd CD database file
#
# Track frame offsets:
#	150
#	19987
#	40640
#
# Disc length: 805 seconds
#
# Revision: 1
# Processed by: cddbd v1.5.2PL0 Copyright (c) Steve Scherf et al.
# Submitted via: CDex 1.70beta2
#
DISCID=1a032303
DTITLE=観月ありさ - PROMISE to PROMISE
DYEAR=1996
DGENRE=JPop
TTITLE0=PROMISE to PROMISE (STRAIGHT RUN)
TTITLE1=PROMISE　to　PROMISE (URBAN STREET MIX)
TTITLE2=PROMISE to PROMISE (TV MIX)
EXTD=YEAR: 1996
EXTT0=
EXTT1=
EXTT2=
PLAYORDER=
